# xmcd
# Track frame offsets:
# 150
# 20327
# 36641
# 49737
# 68920
#
# Disc length: 1380 seconds
# Revision: 0
# Processed by: cddbd v1.5.2PL0 Copyright (c) Steve Scherf et al.
# Submitted via: VisiTrax 2.10.2.252 - For more info visit www.synapsa.com
#
DISCID=41056205
DTITLE=Bad Sign - Live
DYEAR=2009
DGENRE=Blues
TTITLE0=x
TTITLE1=x
TTITLE2=x
TTITLE3=x
TTITLE4=x
EXTD=
EXTT0=
EXTT1=
EXTT2=
EXTT3=
EXTT4=
PLAYORDER=
